<svg width="16" height="16" viewBox="0 0 16 16" fill="none" xmlns="http://www.w3.org/2000/svg">
<path d="M11.12 13.8867C11.1133 13.8867 11.1 13.8867 11.0933 13.8867H3.69999C1.73999 13.7467 0.859985 12.24 0.859985 10.8933C0.859985 9.69335 1.55999 8.36001 3.08665 7.99335C2.65999 6.32668 3.01999 4.76001 4.10665 3.62668C5.33999 2.33335 7.31999 1.82001 9.01999 2.34668C10.58 2.82668 11.68 4.11335 12.08 5.90001C13.4467 6.20668 14.5333 7.24001 14.9733 8.66668C15.4467 10.22 15.02 11.8133 13.8533 12.8333C13.1067 13.5067 12.1333 13.8867 11.12 13.8867ZM3.71332 8.90001C3.70665 8.90001 3.70665 8.90001 3.69999 8.90001C2.43332 8.99335 1.85332 9.96668 1.85332 10.8933C1.85332 11.82 2.43332 12.7933 3.72665 12.8867H11.0867C11.86 12.8733 12.6 12.6067 13.1733 12.0867C14.2133 11.1733 14.2867 9.87335 14.0067 8.96001C13.7267 8.04001 12.9467 7.00001 11.5867 6.82668C11.3667 6.80001 11.1933 6.63335 11.1533 6.41335C10.8867 4.81335 10.02 3.70668 8.71999 3.30668C7.36665 2.89335 5.80665 3.30001 4.82665 4.32001C3.93999 5.24668 3.68665 6.52668 4.09999 7.93335C4.43999 7.98001 4.76665 8.08001 5.06665 8.23335C5.31332 8.36001 5.41332 8.66001 5.28665 8.90668C5.15999 9.15335 4.85999 9.25335 4.61332 9.12668C4.33999 8.98668 4.03999 8.91335 3.73999 8.91335C3.73332 8.90001 3.72665 8.90001 3.71332 8.90001Z" fill="#6C6F75"/>
<path d="M10.5667 7.11334C10.38 7.11334 10.2067 7.01334 10.12 6.83334C9.99335 6.58667 10.1 6.28667 10.3467 6.16001C10.76 5.95334 11.22 5.84001 11.6733 5.83334C11.94 5.82667 12.18 6.04667 12.18 6.32667C12.1867 6.60001 11.9667 6.83334 11.6867 6.83334C11.38 6.84001 11.0667 6.91334 10.7867 7.05334C10.7133 7.09334 10.64 7.11334 10.5667 7.11334Z" fill="#6C6F75"/>
</svg>
