<svg width="16" height="16" viewBox="0 0 16 16" fill="none" xmlns="http://www.w3.org/2000/svg">
<path d="M12.84 13.1C12.5667 13.1 12.34 12.8733 12.34 12.6V4.73331C12.34 4.05998 12.2 3.83331 11.3533 3.83331H10.66C9.81334 3.83331 9.67334 4.05998 9.67334 4.73331V12.6C9.67334 12.8733 9.44667 13.1 9.17334 13.1C8.90001 13.1 8.67334 12.8733 8.67334 12.6V4.73331C8.67334 3.45331 9.32667 2.83331 10.66 2.83331H11.3533C12.6933 2.83331 13.34 3.45331 13.34 4.73331V12.6C13.34 12.8733 13.1133 13.1 12.84 13.1Z" fill="#6C6F75"/>
<path d="M7.17332 13.1C6.89999 13.1 6.67332 12.8734 6.67332 12.6V8.06669C6.67332 7.39335 6.53332 7.16669 5.68665 7.16669H4.99332C4.14665 7.16669 4.00665 7.39335 4.00665 8.06669V12.6C4.00665 12.8734 3.77999 13.1 3.50665 13.1C3.23332 13.1 3.00665 12.8734 3.00665 12.6V8.06669C3.00665 6.78669 3.65999 6.16669 4.99332 6.16669H5.68665C7.02665 6.16669 7.67332 6.78669 7.67332 8.06669V12.6C7.67332 12.8734 7.44665 13.1 7.17332 13.1Z" fill="#6C6F75"/>
<path d="M14.6666 13.1667H1.33331C1.05998 13.1667 0.833313 12.94 0.833313 12.6667C0.833313 12.3934 1.05331 12.1667 1.33331 12.1667H14.6666C14.94 12.1667 15.1666 12.3934 15.1666 12.6667C15.1666 12.94 14.9466 13.1667 14.6666 13.1667Z" fill="#6C6F75"/>
</svg>
