<svg width="32" height="33" viewBox="0 0 32 33" fill="none" xmlns="http://www.w3.org/2000/svg">
<rect y="0.210938" width="32" height="32" rx="8" fill="#F5F5F5"/>
<path d="M12.338 15.5275C12.069 15.2401 11.6499 15.2564 11.4671 15.6221L7.05572 24.4449C6.97394 24.6084 6.98265 24.8026 7.07874 24.9581C7.17483 25.1136 7.3446 25.2082 7.52739 25.2082H13.6708C13.8719 25.2128 14.0568 25.0985 14.1426 24.9166C15.4672 22.1777 14.6647 18.0134 12.338 15.5275Z" fill="url(#paint0_linear_1_1384)"/>
<path d="M15.5758 7.50129C13.1085 11.4104 13.2713 15.7399 14.8965 18.9904L17.8587 24.9149C17.9481 25.0936 18.1307 25.2064 18.3304 25.2064H24.4737C24.6565 25.2064 24.8263 25.1118 24.9224 24.9563C25.0184 24.8008 25.0272 24.6066 24.9454 24.4432C24.9454 24.4432 16.6808 7.91155 16.4729 7.49793C16.287 7.12765 15.8148 7.12261 15.5758 7.50129Z" fill="#2681FF"/>
<defs>
<linearGradient id="paint0_linear_1_1384" x1="11.5804" y1="13.9326" x2="5.39563" y2="20.5761" gradientUnits="userSpaceOnUse">
<stop stop-color="#0052CC"/>
<stop offset="0.923" stop-color="#2684FF"/>
</linearGradient>
</defs>
</svg>
