<svg width="32" height="33" viewBox="0 0 32 33" fill="none" xmlns="http://www.w3.org/2000/svg">
<rect y="0.210938" width="32" height="32" rx="8" fill="#F5F5F5"/>
<path d="M16.4838 15.4484C15.7655 15.756 14.9502 16.1047 13.8936 16.1047C13.4516 16.1038 13.0117 16.0432 12.5859 15.9244L13.3167 23.4272C13.3426 23.7408 13.4854 24.0331 13.7169 24.2463C13.9484 24.4594 14.2516 24.5777 14.5662 24.5777C14.5662 24.5777 15.6024 24.6315 15.9481 24.6315C16.3203 24.6315 17.436 24.5777 17.436 24.5777C17.7507 24.5777 18.0538 24.4593 18.2852 24.2462C18.5166 24.0331 18.6594 23.7407 18.6853 23.4272L19.468 15.1363C19.1182 15.0168 18.7652 14.9375 18.3672 14.9375C17.679 14.9372 17.1244 15.1743 16.4838 15.4484Z" fill="#FFDD00"/>
<path d="M22.8477 11.5565L22.7377 11.0014C22.6389 10.5034 22.4148 10.0328 21.9036 9.85281C21.7397 9.79523 21.5538 9.77048 21.4282 9.65128C21.3025 9.53209 21.2654 9.34697 21.2363 9.17532C21.1825 8.86024 21.132 8.5449 21.0768 8.23038C21.0292 7.95997 20.9915 7.65619 20.8674 7.40812C20.706 7.07502 20.371 6.88023 20.0379 6.75134C19.8672 6.68763 19.6931 6.63373 19.5162 6.58991C18.684 6.37035 17.8091 6.28964 16.9529 6.24363C15.9252 6.18692 14.8949 6.20401 13.8697 6.29475C13.1066 6.36417 12.303 6.44811 11.5778 6.71206C11.3128 6.80866 11.0397 6.92462 10.8382 7.12937C10.5909 7.38095 10.5102 7.77001 10.6908 8.08373C10.8191 8.30652 11.0365 8.46392 11.2671 8.56804C11.5674 8.70221 11.8811 8.8043 12.2029 8.87262C13.0989 9.07065 14.0268 9.14841 14.9422 9.1815C15.9567 9.22245 16.9729 9.18926 17.9826 9.08222C18.2323 9.05478 18.4815 9.02186 18.7303 8.98348C19.0233 8.93854 19.2114 8.5554 19.125 8.28849C19.0217 7.96939 18.744 7.84561 18.43 7.89377C18.3838 7.90104 18.3377 7.90777 18.2915 7.91449L18.2581 7.91934C18.1517 7.93279 18.0454 7.94535 17.939 7.95701C17.7193 7.98069 17.499 8.00006 17.2782 8.01513C16.7836 8.04957 16.2878 8.06544 15.7921 8.06624C15.3052 8.06624 14.8179 8.05252 14.332 8.0205C14.1103 8.00597 13.8891 7.9875 13.6685 7.96508C13.5681 7.95459 13.468 7.94356 13.3679 7.93118L13.2727 7.91907L13.2519 7.91611L13.1532 7.90185C12.9514 7.87144 12.7496 7.83647 12.55 7.79422C12.5298 7.78975 12.5118 7.77855 12.4989 7.76245C12.486 7.74636 12.4789 7.72634 12.4789 7.7057C12.4789 7.68507 12.486 7.66505 12.4989 7.64896C12.5118 7.63286 12.5298 7.62165 12.55 7.61718H12.5537C12.7267 7.58032 12.9011 7.54884 13.076 7.5214C13.1343 7.51225 13.1927 7.50328 13.2514 7.49449H13.253C13.3625 7.48723 13.4726 7.46758 13.5815 7.45467C14.5296 7.35605 15.4834 7.32243 16.436 7.35404C16.8985 7.3675 17.3608 7.39467 17.8211 7.44149C17.9201 7.45171 18.0187 7.46248 18.1171 7.47458C18.1548 7.47915 18.1927 7.48454 18.2306 7.48911L18.3071 7.50014C18.5298 7.53333 18.7514 7.57359 18.9719 7.62095C19.2985 7.69198 19.718 7.71512 19.8633 8.07297C19.9096 8.18651 19.9306 8.31271 19.9561 8.4319L19.9887 8.58392C19.9896 8.58665 19.9901 8.58943 19.9906 8.59226C20.0676 8.95101 20.1446 9.30975 20.2217 9.6685C20.2273 9.695 20.2275 9.72238 20.2221 9.74894C20.2167 9.7755 20.2059 9.80066 20.1903 9.82285C20.1748 9.84504 20.1548 9.86379 20.1317 9.87792C20.1086 9.89206 20.0828 9.90128 20.0559 9.90501H20.0538L20.0067 9.91147L19.9602 9.91766C19.8128 9.93685 19.6651 9.95478 19.5173 9.97147C19.2262 10.0046 18.9346 10.0333 18.6426 10.0576C18.0623 10.1058 17.4809 10.1375 16.8982 10.1525C16.6014 10.1604 16.3046 10.1641 16.008 10.1636C14.827 10.1626 13.6471 10.094 12.4741 9.95801C12.3471 9.94294 12.2201 9.9268 12.0931 9.91039C12.1916 9.92303 12.0215 9.9007 11.9871 9.89586C11.9064 9.88456 11.8257 9.87281 11.7449 9.86061C11.474 9.81998 11.2047 9.76994 10.9343 9.72608C10.6073 9.67227 10.2947 9.69917 9.999 9.86061C9.75627 9.99344 9.55982 10.1971 9.43585 10.4445C9.30832 10.7082 9.27038 10.9952 9.21334 11.2786C9.1563 11.5619 9.06751 11.8667 9.10114 12.1576C9.17352 12.7853 9.61236 13.2954 10.2436 13.4095C10.8374 13.5172 11.4344 13.6043 12.0331 13.6786C14.3848 13.9666 16.7606 14.001 19.1196 13.7814C19.3117 13.7635 19.5036 13.7439 19.6952 13.7227C19.755 13.7161 19.8156 13.723 19.8724 13.7429C19.9292 13.7628 19.9809 13.7951 20.0236 13.8375C20.0663 13.8799 20.099 13.9313 20.1192 13.988C20.1395 14.0447 20.1468 14.1052 20.1407 14.1651L20.081 14.7457C19.9606 15.919 19.8403 17.0922 19.7199 18.2653C19.5944 19.4972 19.4679 20.729 19.3408 21.9608C19.3049 22.3077 19.269 22.6546 19.2332 23.0013C19.1987 23.3427 19.1939 23.6949 19.129 24.0323C19.0268 24.5629 18.6676 24.8887 18.1435 25.008C17.6633 25.1172 17.1728 25.1746 16.6803 25.1791C16.1344 25.182 15.5887 25.1578 15.0428 25.1607C14.46 25.164 13.7462 25.1102 13.2963 24.6765C12.9011 24.2955 12.8465 23.699 12.7927 23.1832C12.7209 22.5003 12.6498 21.8175 12.5793 21.1348L12.1838 17.3386L11.9279 14.8823C11.9236 14.8417 11.9193 14.8017 11.9152 14.7608C11.8846 14.4678 11.6771 14.1809 11.3502 14.1957C11.0704 14.2081 10.7524 14.446 10.7852 14.7608L10.9749 16.5818L11.3672 20.3486C11.4789 21.4186 11.5904 22.4887 11.7016 23.559C11.7231 23.7641 11.7433 23.9696 11.7659 24.1747C11.8889 25.295 12.7445 25.8988 13.8041 26.0689C14.4229 26.1684 15.0568 26.1889 15.6848 26.1991C16.4899 26.212 17.3029 26.2429 18.0948 26.0971C19.2682 25.8819 20.1485 25.0983 20.2742 23.883C20.31 23.5321 20.3459 23.1812 20.3818 22.8301C20.5011 21.6693 20.6202 20.5082 20.7391 19.3472L21.1282 15.5534L21.3066 13.8147C21.3154 13.7285 21.3519 13.6475 21.4104 13.5836C21.4689 13.5196 21.5465 13.4763 21.6316 13.4598C21.9671 13.3944 22.2878 13.2828 22.5265 13.0275C22.9064 12.6209 22.982 12.0909 22.8477 11.5565ZM10.2264 11.9316C10.2315 11.9292 10.222 11.973 10.218 11.9934C10.2172 11.9625 10.2188 11.9351 10.2264 11.9316ZM10.2589 12.1834C10.2616 12.1815 10.2697 12.1923 10.278 12.2052C10.2654 12.1934 10.2573 12.1845 10.2586 12.1834H10.2589ZM10.2909 12.2257C10.3025 12.2453 10.3087 12.2577 10.2909 12.2257V12.2257ZM10.3552 12.2779H10.3569C10.3569 12.2797 10.3598 12.2816 10.3609 12.2835C10.3591 12.2814 10.3571 12.2796 10.355 12.2779H10.3552ZM21.616 12.1998C21.4954 12.3145 21.3138 12.3677 21.1344 12.3944C19.1218 12.693 17.0799 12.8442 15.0452 12.7775C13.5891 12.7277 12.1483 12.566 10.7066 12.3623C10.5654 12.3425 10.4123 12.3166 10.3151 12.2125C10.1322 12.0161 10.222 11.6205 10.2697 11.3832C10.3133 11.1658 10.3967 10.876 10.6552 10.8451C11.0588 10.7978 11.5275 10.9681 11.9268 11.0286C12.4075 11.102 12.8901 11.1607 13.3744 11.2048C15.4413 11.3932 17.5429 11.3639 19.6007 11.0883C19.9758 11.0379 20.3495 10.9794 20.7219 10.9126C21.0536 10.8532 21.4215 10.7415 21.6219 11.0851C21.7594 11.3192 21.7777 11.6324 21.7564 11.8969C21.7499 12.0121 21.6995 12.1205 21.6157 12.1998H21.616Z" fill="black"/>
</svg>
