<svg width="32" height="33" viewBox="0 0 32 33" fill="none" xmlns="http://www.w3.org/2000/svg">
<rect y="0.210938" width="32" height="32" rx="8" fill="#F5F5F5"/>
<path d="M16 24.9297C20.8152 24.9297 24.7188 21.0262 24.7188 16.2109C24.7188 11.3957 20.8152 7.49219 16 7.49219C11.1848 7.49219 7.28125 11.3957 7.28125 16.2109C7.28125 21.0262 11.1848 24.9297 16 24.9297Z" fill="#EA4C89"/>
<path fill-rule="evenodd" clip-rule="evenodd" d="M16 7.21094C11.0315 7.21094 7 11.2424 7 16.2109C7 21.1795 11.0315 25.2109 16 25.2109C20.9588 25.2109 25 21.1795 25 16.2109C25 11.2424 20.9588 7.21094 16 7.21094ZM21.9447 11.3595C23.0184 12.6676 23.6627 14.3367 23.6822 16.1426C23.4284 16.0938 20.8904 15.5764 18.333 15.8986C18.2744 15.7717 18.2256 15.635 18.167 15.4984C18.0108 15.1274 17.8352 14.7467 17.6594 14.3856C20.4902 13.2337 21.7787 11.5743 21.9447 11.3595ZM16 8.53849C17.9523 8.53849 19.7386 9.27059 21.0955 10.4712C20.9588 10.6665 19.7972 12.2185 17.064 13.2435C15.8048 10.93 14.4089 9.03632 14.1941 8.74347C14.77 8.60681 15.3753 8.53849 16 8.53849ZM12.73 9.26083C12.9349 9.53415 14.3015 11.4376 15.5803 13.7022C11.9881 14.6589 8.81562 14.6394 8.47397 14.6394C8.9718 12.2576 10.5824 10.276 12.73 9.26083ZM8.30803 16.2207C8.30803 16.1426 8.30803 16.0645 8.30803 15.9864C8.63991 15.9962 12.3688 16.045 16.205 14.8932C16.4295 15.3226 16.6345 15.7619 16.8297 16.2011C16.7321 16.2305 16.6247 16.2598 16.5271 16.289C12.564 17.5677 10.4555 21.0623 10.2798 21.3552C9.05965 19.9984 8.30803 18.1925 8.30803 16.2207ZM16 23.9029C14.2234 23.9029 12.5835 23.2977 11.2852 22.2825C11.4219 21.9995 12.9837 18.993 17.3178 17.4799C17.3373 17.4701 17.3471 17.4701 17.3666 17.4604C18.4501 20.2619 18.8894 22.6144 19.0065 23.2879C18.0792 23.6881 17.064 23.9029 16 23.9029ZM20.2852 22.5851C20.2072 22.1166 19.7972 19.8715 18.7917 17.109C21.2028 16.7283 23.3113 17.353 23.5749 17.4409C23.243 19.5786 22.013 21.4235 20.2852 22.5851Z" fill="#C32361"/>
</svg>
