<svg width="32" height="33" viewBox="0 0 32 33" fill="none" xmlns="http://www.w3.org/2000/svg">
<rect x="0.5" y="0.710938" width="31" height="31" rx="7.5" fill="#533BE5" fill-opacity="0.05"/>
<path d="M13.5302 20.007C14.9039 21.1239 15.1352 22.3105 14.224 23.5668C13.1008 25.0796 11.0219 25.6291 9.26214 24.7781L9.2474 24.7709C9.24314 24.7689 9.23889 24.7668 9.23464 24.7647C7.25645 23.7994 6.4385 21.4195 7.40769 19.4492L9.60134 14.9896L10.834 12.4837L12.3155 9.47194C13.0353 8.00841 14.5369 7.18007 16.0739 7.24278C17.5587 7.23717 18.9877 8.05866 19.6845 9.47523L24.5923 19.4525C25.5615 21.4228 24.7435 23.8027 22.7654 24.768C22.7611 24.7701 22.7569 24.7722 22.7526 24.7742L22.7379 24.7813C20.7718 25.7321 18.4074 24.9348 17.4224 22.9991C16.9119 21.9298 17.2524 20.9204 18.4439 19.971H18.4435C19.3395 19.2501 19.9126 18.1467 19.9126 16.91C19.9126 14.738 18.1448 12.9773 15.9641 12.9773C13.7835 12.9773 12.0157 14.738 12.0157 16.91C12.0157 18.1675 12.6082 19.2871 13.5302 20.007ZM15.9677 18.9711C14.8219 18.9711 13.8931 18.046 13.8931 16.9048C13.8931 15.7635 14.8219 14.8384 15.9677 14.8384C17.1135 14.8384 18.0423 15.7635 18.0423 16.9048C18.0423 18.046 17.1135 18.9711 15.9677 18.9711Z" fill="#FF8F34"/>
<rect x="0.5" y="0.710938" width="31" height="31" rx="7.5" stroke="#533BE5"/>
</svg>
