<svg width="32" height="33" viewBox="0 0 32 33" fill="none" xmlns="http://www.w3.org/2000/svg">
<rect y="0.210938" width="32" height="32" rx="8" fill="#F5F5F5"/>
<path d="M20.5 16.7734H11.5C11.1925 16.7734 10.9375 16.5184 10.9375 16.2109C10.9375 15.9034 11.1925 15.6484 11.5 15.6484H20.5C20.8075 15.6484 21.0625 15.9034 21.0625 16.2109C21.0625 16.5184 20.8075 16.7734 20.5 16.7734Z" fill="#533BE5"/>
<path d="M16 21.2734C15.6925 21.2734 15.4375 21.0184 15.4375 20.7109V11.7109C15.4375 11.4034 15.6925 11.1484 16 11.1484C16.3075 11.1484 16.5625 11.4034 16.5625 11.7109V20.7109C16.5625 21.0184 16.3075 21.2734 16 21.2734Z" fill="#533BE5"/>
</svg>
