<svg width="71" height="104" viewBox="0 0 71 104" fill="none" xmlns="http://www.w3.org/2000/svg">
<path d="M52.1493 54.8267L50.3701 56.7912" stroke="#DAD6FF" stroke-width="0.518715" stroke-linecap="round"/>
<path d="M71.1025 54.6513L70.3035 56.9678" stroke="#DAD6FF" stroke-width="0.518715" stroke-linecap="round"/>
<path d="M52.2008 48.8702L50.2905 50.76" stroke="#DAD6FF" stroke-width="0.518715" stroke-linecap="round"/>
<path d="M61.5212 48.6977L60.4123 50.9367" stroke="#DAD6FF" stroke-width="0.518715" stroke-linecap="round"/>
<path d="M61.5775 66.6823L60.4686 68.9213" stroke="#DAD6FF" stroke-width="0.518715" stroke-linecap="round"/>
<path d="M52.0509 60.7681L50.5009 62.8451" stroke="#DAD6FF" stroke-width="0.518715" stroke-linecap="round"/>
<path d="M61.5588 60.6865L60.4499 62.9254" stroke="#DAD6FF" stroke-width="0.518715" stroke-linecap="round"/>
<path d="M71.1292 60.6471L70.3301 62.9636" stroke="#DAD6FF" stroke-width="0.518715" stroke-linecap="round"/>
<path d="M42.493 54.8661L40.5827 56.7559" stroke="#DAD6FF" stroke-width="0.518715" stroke-linecap="round"/>
<path d="M13.6334 55.105L11.1203 56.5147" stroke="#DAD6FF" stroke-width="0.518715" stroke-linecap="round"/>
<path d="M23.2819 55.0385L20.9028 56.58" stroke="#DAD6FF" stroke-width="0.518715" stroke-linecap="round"/>
<path d="M32.9148 54.9629L30.7195 56.6586" stroke="#DAD6FF" stroke-width="0.518715" stroke-linecap="round"/>
<path d="M42.6226 48.967L40.4273 50.6628" stroke="#DAD6FF" stroke-width="0.518715" stroke-linecap="round"/>
<path d="M4.04419 49.3088L1.22728 50.3223" stroke="#DAD6FF" stroke-width="0.518715" stroke-linecap="round"/>
<path d="M13.6771 49.1787L11.0422 50.4496" stroke="#DAD6FF" stroke-width="0.518715" stroke-linecap="round"/>
<path d="M23.3334 49.1092L20.8203 50.5188" stroke="#DAD6FF" stroke-width="0.518715" stroke-linecap="round"/>
<path d="M42.3665 66.7761L40.7697 68.8318" stroke="#DAD6FF" stroke-width="0.518715" stroke-linecap="round"/>
<path d="M32.7337 66.8215L30.9545 68.786" stroke="#DAD6FF" stroke-width="0.518715" stroke-linecap="round"/>
<path d="M13.5819 61.0374L11.2028 62.5789" stroke="#DAD6FF" stroke-width="0.518715" stroke-linecap="round"/>
<path d="M23.207 60.9587L21.0116 62.6545" stroke="#DAD6FF" stroke-width="0.518715" stroke-linecap="round"/>
<path d="M32.7852 60.8619L30.8749 62.7517" stroke="#DAD6FF" stroke-width="0.518715" stroke-linecap="round"/>
<path d="M52.3304 42.9711L50.1351 44.6669" stroke="#DAD6FF" stroke-width="0.518715" stroke-linecap="round"/>
<path d="M61.5103 42.7019L60.4014 44.9408" stroke="#DAD6FF" stroke-width="0.518715" stroke-linecap="round"/>
<path d="M71.0807 42.6626L70.2817 44.979" stroke="#DAD6FF" stroke-width="0.518715" stroke-linecap="round"/>
<path d="M52.3038 36.9783L50.1085 38.6741" stroke="#DAD6FF" stroke-width="0.518715" stroke-linecap="round"/>
<path d="M62.0304 36.9783L59.8351 38.6741" stroke="#DAD6FF" stroke-width="0.518715" stroke-linecap="round"/>
<path d="M71.757 36.9783L69.5616 38.6741" stroke="#DAD6FF" stroke-width="0.518715" stroke-linecap="round"/>
<path d="M52.1679 30.9824L49.9726 32.6782" stroke="#DAD6FF" stroke-width="0.518715" stroke-linecap="round"/>
<path d="M61.8867 30.9824L59.6913 32.6782" stroke="#DAD6FF" stroke-width="0.518715" stroke-linecap="round"/>
<path d="M71.6054 30.9824L69.4101 32.6782" stroke="#DAD6FF" stroke-width="0.518715" stroke-linecap="round"/>
<path d="M52.1492 24.9865L49.9538 26.6823" stroke="#DAD6FF" stroke-width="0.518715" stroke-linecap="round"/>
<path d="M61.8757 24.9865L59.6804 26.6823" stroke="#DAD6FF" stroke-width="0.518715" stroke-linecap="round"/>
<path d="M71.5945 24.9865L69.3991 26.6823" stroke="#DAD6FF" stroke-width="0.518715" stroke-linecap="round"/>
<path d="M42.6039 42.9711L40.4085 44.6669" stroke="#DAD6FF" stroke-width="0.518715" stroke-linecap="round"/>
<path d="M4.11908 43.5096L1.11564 44.1303" stroke="#DAD6FF" stroke-width="0.518715" stroke-linecap="round"/>
<path d="M13.8378 43.5096L10.8344 44.1303" stroke="#DAD6FF" stroke-width="0.518715" stroke-linecap="round"/>
<path d="M23.5566 43.4914L20.5678 44.1525" stroke="#DAD6FF" stroke-width="0.518715" stroke-linecap="round"/>
<path d="M33.2051 43.3341L30.3656 44.3096" stroke="#DAD6FF" stroke-width="0.518715" stroke-linecap="round"/>
<path d="M42.5929 36.9783L40.3976 38.6741" stroke="#DAD6FF" stroke-width="0.518715" stroke-linecap="round"/>
<path d="M3.70227 36.9783L1.50693 38.6741" stroke="#DAD6FF" stroke-width="0.518715" stroke-linecap="round"/>
<path d="M13.421 36.9783L11.2257 38.6741" stroke="#DAD6FF" stroke-width="0.518715" stroke-linecap="round"/>
<path d="M23.1398 36.9783L20.9444 38.6741" stroke="#DAD6FF" stroke-width="0.518715" stroke-linecap="round"/>
<path d="M32.8663 36.9783L30.671 38.6741" stroke="#DAD6FF" stroke-width="0.518715" stroke-linecap="round"/>
<path d="M42.4492 30.9824L40.2538 32.6782" stroke="#DAD6FF" stroke-width="0.518715" stroke-linecap="round"/>
<path d="M3.55072 30.9824L1.35538 32.6782" stroke="#DAD6FF" stroke-width="0.518715" stroke-linecap="round"/>
<path d="M13.2773 30.9824L11.0819 32.6782" stroke="#DAD6FF" stroke-width="0.518715" stroke-linecap="round"/>
<path d="M23.0038 30.9824L20.8085 32.6782" stroke="#DAD6FF" stroke-width="0.518715" stroke-linecap="round"/>
<path d="M32.7148 30.9824L30.5194 32.6782" stroke="#DAD6FF" stroke-width="0.518715" stroke-linecap="round"/>
<path d="M42.4226 24.9865L40.2273 26.6823" stroke="#DAD6FF" stroke-width="0.518715" stroke-linecap="round"/>
<path d="M3.53979 24.9865L1.34445 26.6823" stroke="#DAD6FF" stroke-width="0.518715" stroke-linecap="round"/>
<path d="M13.2585 24.9895L11.0632 26.6853" stroke="#DAD6FF" stroke-width="0.518715" stroke-linecap="round"/>
<path d="M22.9773 24.9865L20.782 26.6823" stroke="#DAD6FF" stroke-width="0.518715" stroke-linecap="round"/>
<path d="M32.7117 24.9865L30.5163 26.6823" stroke="#DAD6FF" stroke-width="0.518715" stroke-linecap="round"/>
<path d="M52.1382 18.9906L49.9428 20.6864" stroke="#DAD6FF" stroke-width="0.518715" stroke-linecap="round"/>
<path d="M61.8569 18.9906L59.6616 20.6864" stroke="#DAD6FF" stroke-width="0.518715" stroke-linecap="round"/>
<path d="M71.5835 18.9906L69.3882 20.6864" stroke="#DAD6FF" stroke-width="0.518715" stroke-linecap="round"/>
<path d="M52.1194 12.9948L49.9241 14.6906" stroke="#DAD6FF" stroke-width="0.518715" stroke-linecap="round"/>
<path d="M61.8382 12.9948L59.6429 14.6906" stroke="#DAD6FF" stroke-width="0.518715" stroke-linecap="round"/>
<path d="M71.5569 12.9948L69.3616 14.6906" stroke="#DAD6FF" stroke-width="0.518715" stroke-linecap="round"/>
<path d="M42.4038 18.9906L40.2085 20.6864" stroke="#DAD6FF" stroke-width="0.518715" stroke-linecap="round"/>
<path d="M3.521 18.9906L1.32565 20.6864" stroke="#DAD6FF" stroke-width="0.518715" stroke-linecap="round"/>
<path d="M13.2476 18.9906L11.0522 20.6864" stroke="#DAD6FF" stroke-width="0.518715" stroke-linecap="round"/>
<path d="M22.9663 18.9906L20.771 20.6864" stroke="#DAD6FF" stroke-width="0.518715" stroke-linecap="round"/>
<path d="M32.6929 18.9906L30.4975 20.6864" stroke="#DAD6FF" stroke-width="0.518715" stroke-linecap="round"/>
<path d="M42.3929 12.9948L40.1975 14.6906" stroke="#DAD6FF" stroke-width="0.518715" stroke-linecap="round"/>
<path d="M3.50226 12.9948L1.30691 14.6906" stroke="#DAD6FF" stroke-width="0.518715" stroke-linecap="round"/>
<path d="M13.221 12.9948L11.0257 14.6906" stroke="#DAD6FF" stroke-width="0.518715" stroke-linecap="round"/>
<path d="M22.9554 12.9948L20.76 14.6906" stroke="#DAD6FF" stroke-width="0.518715" stroke-linecap="round"/>
<path d="M32.6741 12.9948L30.4788 14.6906" stroke="#DAD6FF" stroke-width="0.518715" stroke-linecap="round"/>
<path d="M52.1007 6.99889L49.9054 8.69468" stroke="#DAD6FF" stroke-width="0.518715" stroke-linecap="round"/>
<path d="M61.8195 6.99889L59.6241 8.69468" stroke="#DAD6FF" stroke-width="0.518715" stroke-linecap="round"/>
<path d="M71.546 6.99889L69.3507 8.69468" stroke="#DAD6FF" stroke-width="0.518715" stroke-linecap="round"/>
<path d="M52.0819 0.999992L49.8866 2.69578" stroke="#DAD6FF" stroke-width="0.518715" stroke-linecap="round"/>
<path d="M61.8085 0.999992L59.6132 2.69578" stroke="#DAD6FF" stroke-width="0.518715" stroke-linecap="round"/>
<path d="M71.5273 0.999992L69.3319 2.69578" stroke="#DAD6FF" stroke-width="0.518715" stroke-linecap="round"/>
<path d="M42.3898 6.99889L40.1944 8.69468" stroke="#DAD6FF" stroke-width="0.518715" stroke-linecap="round"/>
<path d="M3.49133 6.99889L1.29599 8.69468" stroke="#DAD6FF" stroke-width="0.518715" stroke-linecap="round"/>
<path d="M13.2101 6.99889L11.0147 8.69468" stroke="#DAD6FF" stroke-width="0.518715" stroke-linecap="round"/>
<path d="M22.9366 6.99889L20.7413 8.69468" stroke="#DAD6FF" stroke-width="0.518715" stroke-linecap="round"/>
<path d="M32.6476 6.99587L30.4522 8.69166" stroke="#DAD6FF" stroke-width="0.518715" stroke-linecap="round"/>
<path d="M42.3632 0.999992L40.1679 2.69578" stroke="#DAD6FF" stroke-width="0.518715" stroke-linecap="round"/>
<path d="M3.47253 0.999992L1.27719 2.69578" stroke="#DAD6FF" stroke-width="0.518715" stroke-linecap="round"/>
<path d="M13.1913 0.999992L10.9959 2.69578" stroke="#DAD6FF" stroke-width="0.518715" stroke-linecap="round"/>
<path d="M22.9179 0.999992L20.7226 2.69578" stroke="#DAD6FF" stroke-width="0.518715" stroke-linecap="round"/>
<path d="M32.6445 0.999992L30.4491 2.69578" stroke="#DAD6FF" stroke-width="0.518715" stroke-linecap="round"/>
</svg>
