<svg width="16" height="16" viewBox="0 0 16 16" fill="none" xmlns="http://www.w3.org/2000/svg">
<path d="M10.2733 12.3933C10.0067 12.3933 9.78666 12.1733 9.78666 11.9067C9.78666 11.64 10.0067 11.42 10.2733 11.42C12.1533 11.42 13.6867 9.88668 13.6867 8.00668C13.6867 6.12668 12.1533 4.59334 10.2733 4.59334C8.39332 4.59334 6.85999 6.12668 6.85999 8.00668C6.85999 8.27334 6.63999 8.49334 6.37332 8.49334C6.10666 8.49334 5.88666 8.27334 5.88666 8.00668C5.88666 5.58668 7.85332 3.61334 10.28 3.61334C12.7067 3.61334 14.6667 5.58001 14.6667 8.00001C14.6667 10.42 12.7 12.3933 10.2733 12.3933Z" fill="#98A5B3"/>
<path d="M5.72665 3.60669C5.99331 3.60669 6.21331 3.82669 6.21331 4.09336C6.21331 4.36002 5.99331 4.58002 5.72665 4.58002C3.84665 4.58002 2.31331 6.11336 2.31331 7.99336C2.31331 9.87336 3.84665 11.4067 5.72665 11.4067C7.60665 11.4067 9.13998 9.87336 9.13998 7.99336C9.13998 7.72669 9.35998 7.50669 9.62665 7.50669C9.89331 7.50669 10.1133 7.72669 10.1133 7.99336C10.1133 10.4134 8.14665 12.3867 5.71998 12.3867C3.29331 12.3867 1.33331 10.42 1.33331 8.00002C1.33331 5.58002 3.29998 3.60669 5.72665 3.60669Z" fill="#98A5B3"/>
</svg>
